<svg xmlns="http://www.w3.org/2000/svg" viewBox="0 0 154.51 75.62"><defs><style>.cls-1{fill:#C1C7CF;}</style></defs><g id="图层_2" data-name="图层 2"><g id="图层_1-2" data-name="图层 1"><g id="组_1" data-name="组 1"><rect id="矩形_1" data-name="矩形 1" class="cls-1" x="26.82" y="59.87" width="2.49" height="11.07"/><rect id="矩形_2" data-name="矩形 2" class="cls-1" x="26.82" y="55.35" width="2.49" height="2.49"/><path id="路径_1" data-name="路径 1" class="cls-1" d="M38.51,59.87h-3c-2.65,0-3.74,1.25-3.74,3.59v7.48H34.3v-7c0-1.24.62-1.71,1.72-1.71h2c1.25,0,1.72.62,1.72,1.87v6.86h2.49V63.46C42.25,61,41.32,59.87,38.51,59.87Z"/><path id="路径_2" data-name="路径 2" class="cls-1" d="M108.83,62.21h5.3V60H109c-4,0-5.14,1.24-5.14,4.36v2.34c0,3,1.09,4.37,5.14,4.37h5.15V68.91h-5.46a2,2,0,0,1-2.18-2.18V64.55C106.64,62.83,107.27,62.21,108.83,62.21Z"/><path id="路径_3" data-name="路径 3" class="cls-1" d="M51.61,59.87h-2.5c-3.43,0-4.36,1.25-4.36,3.9v3c0,3.12,1.09,4.21,4.36,4.21h4.06c0,1.71-.78,2.49-2.34,2.49h-5.3v2.19h5.61c3.59,0,5-1.25,5-4.37V63.92C55.82,61.27,54.73,59.87,51.61,59.87ZM53,66.73c0,1.25-.62,1.87-1.71,1.87H49.42c-1.4,0-1.87-.62-1.87-1.71v-3c0-1.24.47-1.71,1.72-1.71h2A1.48,1.48,0,0,1,53,63.61v3.12Z"/><path id="路径_4" data-name="路径 4" class="cls-1" d="M66.73,59.87H62.68c-3.28,0-4.37,1.25-4.37,3.9v3.12c0,2.8,1.09,4,4.37,4h2.18c3.27,0,4.36-1.09,4.36-4.21v-.31h0V55.35H66.57Zm-.16,6.86a1.6,1.6,0,0,1-1.4,1.87H62.83A1.6,1.6,0,0,1,61.12,67V63.77c0-1.25.62-1.72,1.87-1.72h2a1.56,1.56,0,0,1,1.71,1.72Z"/><path id="路径_5" data-name="路径 5" class="cls-1" d="M90.74,59.87h-2c-3.11,0-4.36,1.4-4.36,4.05v2.34c0,3.28,1.25,4.68,4.36,4.68h1.87c3.28,0,4.53-1.25,4.53-4.21V63.92C95.11,61.27,93.86,59.87,90.74,59.87Zm1.72,6.86A1.85,1.85,0,0,1,90.9,68.6H89A1.87,1.87,0,0,1,87,67v-3c0-1.09.62-1.72,1.87-1.72h1.56c1.4,0,1.87.63,1.87,2Z"/><path id="路径_6" data-name="路径 6" class="cls-1" d="M20.42,59.87H10.6c-2.65,0-3.74,1.25-3.74,3.43v7.64H9.35V63.77a1.4,1.4,0,0,1,1.25-1.56h2c1.09,0,1.56.47,1.56,1.56v7.17h2.49V63.77c0-1.09.47-1.56,1.56-1.56H19.8c1.25,0,1.72.62,1.72,1.71v7H24V63.3C24.32,61.12,23.39,59.87,20.42,59.87Z"/><path id="路径_7" data-name="路径 7" class="cls-1" d="M77.64,59.87h-5.3v2h4.84c1.4,0,1.87.62,1.87,1.87H75c-2.49,0-3.43.93-3.43,3.12v.62c0,2.18.94,3.27,3.59,3.27h3.12c2.34,0,3.43-1.09,3.43-3.27V64.08C81.85,61.12,80.76,59.87,77.64,59.87Zm-.15,9H75.77c-1.09,0-1.56-.46-1.56-1.56s.47-1.56,1.56-1.56h1.87c1.25,0,1.56.63,1.56,1.56,0,1.1-.46,1.56-1.71,1.56Z"/><rect id="矩形_3" data-name="矩形 3" class="cls-1" x="97.91" y="67.82" width="3.12" height="2.96"/><path id="路径_8" data-name="路径 8" class="cls-1" d="M143.28,59.87h-9.82c-2.65,0-3.74,1.25-3.74,3.43v7.64h2.49V63.77a1.4,1.4,0,0,1,1.56-1.56h1.56c1.09,0,1.72.47,1.72,1.56v7.17h2.49V63.77c0-1.09.47-1.56,1.56-1.56h1.56c1.25,0,1.71.47,1.71,1.71v7h2.5V63.3C147.18,61.12,146.25,59.87,143.28,59.87Z"/><path id="路径_9" data-name="路径 9" class="cls-1" d="M123,59.87h-2c-3.12,0-4.37,1.4-4.37,4.05v2.34c0,3.28,1.25,4.68,4.37,4.68h1.87c3.27,0,4.52-1.25,4.52-4.21V63.92C127.38,61.27,126.13,59.87,123,59.87Zm1.72,6.86a1.84,1.84,0,0,1-1.56,1.87H121.3a1.87,1.87,0,0,1-2-1.56v-3a1.73,1.73,0,0,1,1.56-1.87h2c1.4,0,1.87.62,1.87,2Z"/><path id="路径_10" data-name="路径 10" class="cls-1" d="M11.23,41.94c6.08,0,8.73-2.34,8.73-8.26V.78h-.78a4.86,4.86,0,0,0-4.06,1.4H4.68A5,5,0,0,0,.62.78H0V34c0,5.61,2.49,7.95,8.58,7.95ZM5.77,7.64H14V18.71H5.77V7.64Zm0,26V24.17H14v9.51a2.59,2.59,0,0,1-2.34,2.8H8.26a2.46,2.46,0,0,1-2.65-2.34.55.55,0,0,0,.16-.46Z"/><path id="路径_11" data-name="路径 11" class="cls-1" d="M29.16,32.9H41.63v6.55c0,2.49-.94,3.27-3.43,3.27H35.55v5H39.6c5.46,0,8.11-2.5,8.11-7.64V7.8c0-5.46-2.18-7.8-8.42-7.8h-7.8c-6.23,0-8.41,2.49-8.41,7.8V35.55c0,4.05-1.56,6.39-5,7.64v4.67C25.88,46.93,29.16,43,29.16,35.7Zm0-24.48c0-2,.93-3,3.11-3h6.4c2,0,3,.93,3,3v5H29.16Zm0,10.6H41.63v8.42H29.16Z"/><rect id="矩形_4" data-name="矩形 4" class="cls-1" x="110.39" y="1.09" width="39.91" height="5.46"/><path id="路径_12" data-name="路径 12" class="cls-1" d="M145.78,30.4a5,5,0,0,0-5.15-3.12h-2.8l4.83,10.29a10.86,10.86,0,0,1-8.73,4.53h-17c-1.87,0-2.65-1.56-1.71-3.28,1.71-2.8,6.7-11.69,9.51-16.68H154.2V16.68H106.33v5.46h11.23l-8.42,15.43c-2.5,4.68-.16,10,5.14,10h20.43a13.51,13.51,0,0,0,10.76-4.36l2.18,4.52h6.86C154.35,47.86,148.27,35.39,145.78,30.4Z"/><path id="路径_13" data-name="路径 13" class="cls-1" d="M80.76,11.85h-9.2a5.17,5.17,0,0,0-4.21-1.4h-.46V31.81c0,5.14,2,7.79,8.26,7.79H92.46c5.61,0,8.26-2.34,8.26-8V10.29h-.47a5.39,5.39,0,0,0-4,1.4H86.84L87,8h14.5V3.27H97L97.76,0H94.33c-2.19,0-3.12.62-3.43,2-.16.78-.32,1.09-.32,1.24H77.49c0-.15-.16-.62-.31-1.24-.47-1.41-1.25-2-3.43-2H70.32l.78,3.27H66.42V8H80.76ZM94.64,32.27a2.49,2.49,0,0,1-2.18,2.81h-17a2.47,2.47,0,0,1-2.8-2.18V31.49h22Zm0-5h-22V23.7h22Zm0-10.91V19.8h-22V16.21Z"/><rect id="矩形_5" data-name="矩形 5" class="cls-1" x="53.32" y="0.16" width="10.13" height="5.15"/><path id="路径_14" data-name="路径 14" class="cls-1" d="M63.77,34.77V15.9c0-3.74-1.72-5.45-6.24-5.45H53.48v5.14h2.18c1.4,0,1.72.62,1.72,1.72V36.64a5.25,5.25,0,0,1-3.9,5.46v5.45c4.36-.46,6.39-1.56,8.11-3.58,1.24,2.34,4.2,3.58,8.41,3.58h31.34V42.41H71.56C67.51,42.25,63.92,40.23,63.77,34.77Z"/></g></g></g></svg>